<svg xmlns="http://www.w3.org/2000/svg" viewBox="0 0 64 64"><defs><linearGradient id="g" x1="0" y1="0" x2="1" y2="1"><stop stop-color="#d49a5b"/><stop offset="1" stop-color="#8b512d"/></linearGradient></defs><rect width="64" height="64" rx="18" fill="#201710"/><path d="M13 37c2-12 11-20 23-20 8 0 14 3 18 9-3 15-12 24-25 24-8 0-13-4-16-13z" fill="url(#g)"/><path d="M23 35c2-7 7-11 14-11 5 0 9 2 12 5-2 9-8 15-16 15-5 0-8-3-10-9z" fill="#fff7e9"/><circle cx="39" cy="17" r="2" fill="#5a321f"/><circle cx="45" cy="20" r="2" fill="#5a321f"/><circle cx="42" cy="13" r="2" fill="#5a321f"/></svg>