<svg xmlns="http://www.w3.org/2000/svg" viewBox="0 0 64 64"><defs><clipPath id="c"><rect x="7" y="14" width="50" height="36" rx="7"/></clipPath></defs><rect width="64" height="64" rx="18" fill="#10182e"/><g clip-path="url(#c)"><path fill="#FFB700" d="M7 14h50v36H7z"/><path fill="#00534E" d="M10 18h7v28h-7z"/><path fill="#F77F00" d="M17 18h7v28h-7z"/><path fill="#8D153A" d="M27 18h26v28H27z"/><path d="M38 27c3-4 8-4 10 0-1 1-2 2-3 3l3 7h-4l-2-4-3 4h-4l3-7-3-3z" fill="#FFB700"/><path d="M49 24v17" stroke="#FFB700" stroke-width="2" stroke-linecap="round"/></g><rect x="7" y="14" width="50" height="36" rx="7" fill="none" stroke="#fff" stroke-opacity=".35"/></svg>