<svg xmlns="http://www.w3.org/2000/svg" viewBox="0 0 64 64" role="img" aria-label="Canva">
  <defs><linearGradient id="g" x1="8" y1="8" x2="56" y2="56"><stop stop-color="#00c4cc"/><stop offset=".52" stop-color="#7d2ae8"/><stop offset="1" stop-color="#ff5bce"/></linearGradient></defs>
  <circle cx="32" cy="32" r="30" fill="url(#g)"/>
  <path d="M42.5 24.5c-2.4-3.7-6.2-5.7-10.7-5.7-8.1 0-14.3 5.9-14.3 13.6 0 7.5 5.9 12.9 13.9 12.9 4.5 0 8.4-1.8 11.1-5.1l-4.2-3.6c-1.8 2-3.9 3-6.5 3-4.7 0-8.1-3.1-8.1-7.5 0-4.5 3.5-7.7 8.2-7.7 2.6 0 4.7 1.1 6.3 3.2l4.3-3.1z" fill="#fff"/>
</svg>
