<svg xmlns="http://www.w3.org/2000/svg" viewBox="0 0 64 64" role="img" aria-label="TikTok"><rect width="64" height="64" rx="16" fill="#101010"/><path d="M39 14c.7 5.2 3.7 8.3 8.7 9v7a19.2 19.2 0 0 1-8.7-2.5V39c0 8.2-6.5 13-13.2 13-6.8 0-12.4-5.4-12.4-12.1 0-7.5 6.4-12.7 13.8-11.8v7.2c-3.2-.7-6.8 1.1-6.8 4.8 0 2.7 2.3 4.9 5.2 4.9 3.1 0 5.8-1.9 5.8-6.3V14H39z" fill="#25F4EE" transform="translate(-2 1)"/><path d="M41 14c.7 5.2 3.7 8.3 8.7 9v7a19.2 19.2 0 0 1-8.7-2.5V39c0 8.2-6.5 13-13.2 13-6.8 0-12.4-5.4-12.4-12.1 0-7.5 6.4-12.7 13.8-11.8v7.2c-3.2-.7-6.8 1.1-6.8 4.8 0 2.7 2.3 4.9 5.2 4.9 3.1 0 5.8-1.9 5.8-6.3V14H41z" fill="#FE2C55" transform="translate(2 -1)"/><path d="M40 14c.7 5.2 3.7 8.3 8.7 9v7a19.2 19.2 0 0 1-8.7-2.5V39c0 8.2-6.5 13-13.2 13-6.8 0-12.4-5.4-12.4-12.1 0-7.5 6.4-12.7 13.8-11.8v7.2c-3.2-.7-6.8 1.1-6.8 4.8 0 2.7 2.3 4.9 5.2 4.9 3.1 0 5.8-1.9 5.8-6.3V14H40z" fill="#fff"/></svg>
