<svg xmlns="http://www.w3.org/2000/svg" viewBox="0 0 64 64" role="img" aria-label="WhatsApp"><circle cx="32" cy="32" r="30" fill="#25D366"/><path d="M17.3 48.7l2.2-8.1a17.3 17.3 0 1 1 6.4 6.3l-8.6 1.8z" fill="#fff"/><path d="M22.5 39.4l-1.3 4.6 4.8-1.3.8.5a13.1 13.1 0 1 0-4.7-4.6l.4.8z" fill="#25D366"/><path d="M38.9 34.7c-.4-.2-2.5-1.2-2.9-1.4-.4-.1-.7-.2-1 .2-.3.5-1.1 1.4-1.4 1.7-.3.3-.5.4-1 .1-2.8-1.4-4.6-2.5-6.4-5.7-.5-.9.5-.8 1.4-2.8.2-.4.1-.7-.1-1-.1-.2-1-2.3-1.3-3.2-.4-.9-.8-.8-1-.8h-.9c-.3 0-.8.1-1.2.6-.4.5-1.6 1.6-1.6 3.9s1.7 4.5 1.9 4.8c.2.3 3.3 5 8 7 3 1.3 4.1 1.4 5.6 1.2.9-.1 2.5-1 2.9-2 .4-1 .4-1.9.3-2.1-.2-.2-.5-.3-1.3-.5z" fill="#fff"/></svg>
